<svg width="14" height="20" viewBox="0 0 14 20" fill="none" xmlns="http://www.w3.org/2000/svg">
<path d="M13.9199 6.50002C13.9199 2.91015 11.0098 0 7.41994 0C3.83011 0 0.919922 2.91015 0.919922 6.50002C0.919922 7.35938 1.08827 8.17897 1.39123 8.92985L1.38972 8.93048L1.39555 8.94084C1.59938 9.44352 7.1052 19.1603 7.1052 19.1603C7.24281 19.4065 7.59713 19.4065 7.73468 19.1603C7.73468 19.1603 13.2405 9.44358 13.4443 8.94094L13.4502 8.93048L13.4487 8.92985C13.7516 8.179 13.9199 7.35938 13.9199 6.50002ZM7.4199 10.2065C5.37289 10.2065 3.71347 8.54706 3.71347 6.50005C3.71347 4.45307 5.37289 2.79361 7.4199 2.79361C9.46691 2.79361 11.1263 4.45307 11.1263 6.50005C11.1263 8.54706 9.46695 10.2065 7.4199 10.2065Z" fill="white"/>
</svg>
