<svg width="20" height="20" viewBox="0 0 20 20" fill="none" xmlns="http://www.w3.org/2000/svg">
<g clip-path="url(#clip0_4_366)">
<path d="M15.6765 0H4.32351C1.9357 0 0 1.9357 0 4.32351V15.6765C0 18.0643 1.9357 20 4.32351 20H15.6765C18.0643 20 20 18.0643 20 15.6765V4.32351C20 1.9357 18.0643 0 15.6765 0Z" fill="black"/>
<path d="M13.5633 11.6755C13.6329 12.5527 14.4694 13.1308 15.4578 13.1308C16.1818 13.1308 16.7665 13.0333 17.3373 12.8523L17.3394 14.3933C16.6433 14.6718 15.7941 14.8249 14.8752 14.8249C12.5641 14.8249 11.5446 13.207 11.5446 11.0769C11.5446 9.35059 12.6166 7.44327 14.9833 7.44327C17.183 7.44327 18.0183 9.15572 18.0183 10.8403C18.0183 11.2022 17.9766 11.5225 17.9488 11.6756H13.5633L13.5633 11.6755ZM16.0554 10.2276C16.0554 9.71255 15.8327 8.84934 14.8581 8.84934C13.9671 8.84934 13.6051 9.65681 13.5494 10.2276H16.0554Z" fill="white"/>
<path d="M7.85421 4.91421H5.25779C5.29116 5.42547 5.14664 5.87004 5.14664 5.87004L1.99085 14.9669C1.95401 15.0732 2.03289 15.184 2.14529 15.184H2.27912L3.94856 15.1891C4.01996 15.1893 4.08327 15.1432 4.10486 15.0751L4.84103 12.7555L8.46433 12.7666L9.24223 15.0782C9.26459 15.1447 9.32697 15.1895 9.39713 15.1895H11.3784C11.4913 15.1895 11.5701 15.0778 11.5325 14.9714L8.00829 5.02303C7.98519 4.95775 7.92344 4.91415 7.85421 4.91415V4.91421ZM5.39272 10.7771C5.39272 10.7771 6.51929 7.30938 6.60818 6.70922L7.87523 10.7771H5.39272Z" fill="white"/>
</g>
<defs>
<clipPath id="clip0_4_366">
<rect width="20" height="20" fill="white"/>
</clipPath>
</defs>
</svg>
