<?xml version="1.0" encoding="UTF-8"?>
<svg id="Ebene_2" data-name="Ebene 2" xmlns="http://www.w3.org/2000/svg" viewBox="0 0 20 20">
  <defs>
    <style>
      .cls-1, .cls-2, .cls-3, .cls-4 {
        stroke-width: 0px;
      }

      .cls-2 {
        fill: #f2f2f2;
      }

      .cls-3 {
        fill: #2d2d2d;
      }

      .cls-4 {
        fill: #fff;
      }
    </style>
  </defs>
  <g id="Ebene_1-2" data-name="Ebene 1">
    <rect class="cls-1" width="20" height="20" rx="4" ry="4"/>
    <g>
      <path class="cls-4" d="M9.99,16.77l-3.92-1.09-.87-9.79h9.59l-.87,9.79-3.93,1.09Z"/>
      <path class="cls-2" d="M13.17,15.06l.75-8.37h-3.92v9.25l3.17-.88Z"/>
      <path class="cls-3" d="M7.2,10.32l.11,1.2h2.69v-1.2h-2.8Z"/>
      <path class="cls-3" d="M6.99,7.89l.11,1.2h2.9v-1.2h-3.01Z"/>
      <path class="cls-3" d="M10,13.44h0s-1.34-.36-1.34-.36l-.09-.96h-1.21l.17,1.89,2.46.68h0v-1.25Z"/>
      <path class="cls-4" d="M7.46,3.23h1.45v.61h-.85v.61h.85v.61h-1.45v-1.83Z"/>
      <path class="cls-4" d="M9.21,3.23h1.45v.53h-.85v.11h.85v1.22h-1.45v-.56h.85v-.11h-.85v-1.19Z"/>
      <path class="cls-4" d="M10.95,3.23h1.45v.53h-.85v.11h.85v1.22h-1.45v-.56h.85v-.11h-.85v-1.19Z"/>
      <path class="cls-1" d="M12.79,10.32l.22-2.43h-3.01v1.2h1.69l-.11,1.23h-1.58v1.2h1.48l-.14,1.56-1.34.36v1.25l2.46-.68.02-.2.28-3.16.03-.32Z"/>
    </g>
  </g>
</svg>