<?xml version="1.0" encoding="UTF-8"?>
<svg id="Ebene_2" data-name="Ebene 2" xmlns="http://www.w3.org/2000/svg" xmlns:xlink="http://www.w3.org/1999/xlink" viewBox="0 0 20 20">
  <defs>
    <style>
      .cls-1 {
        clip-path: url(#clippath);
      }

      .cls-2 {
        fill: none;
      }

      .cls-2, .cls-3, .cls-4, .cls-5, .cls-6 {
        stroke-width: 0px;
      }

      .cls-4 {
        fill: #f2f2f2;
      }

      .cls-5 {
        fill: #2d2d2d;
      }

      .cls-6 {
        fill: #fff;
      }
    </style>
    <clipPath id="clippath">
      <rect class="cls-2" x="5.2" y="3.23" width="9.6" height="13.54"/>
    </clipPath>
  </defs>
  <g id="Ebene_1-2" data-name="Ebene 1">
    <g>
      <rect class="cls-3" width="20" height="20" rx="4" ry="4"/>
      <g class="cls-1">
        <g>
          <path class="cls-6" d="M14.79,5.88l-.87,9.77-3.92,1.09-3.91-1.08-.87-9.77h9.57Z"/>
          <path class="cls-4" d="M10,15.91l3.17-.88.75-8.35h-3.91v9.22Z"/>
          <path class="cls-5" d="M8.31,9.08h1.69v-1.2h-3l.03.32.29,3.3h2.68v-1.2h-1.59l-.11-1.23Z"/>
          <path class="cls-5" d="M8.58,12.1h-1.2l.17,1.88,2.45.68h0v-1.25h0s-1.33-.36-1.33-.36l-.09-.96Z"/>
          <path class="cls-6" d="M6.11,3.23h.61v.6h.56v-.6h.61v1.82h-.61v-.61h-.56v.61h-.61v-1.82h0Z"/>
          <path class="cls-6" d="M8.68,3.83h-.54v-.6h1.68v.6h-.54v1.22h-.61v-1.22h0Z"/>
          <path class="cls-6" d="M10.09,3.23h.63l.39.64.39-.64h.64v1.82h-.61v-.9l-.42.65h-.01l-.42-.65v.9h-.6v-1.82Z"/>
          <path class="cls-6" d="M12.45,3.23h.61v1.22h.86v.6h-1.47v-1.82Z"/>
          <path class="cls-3" d="M10,11.5h1.48l-.14,1.55-1.34.36v1.25l2.46-.68.02-.2.28-3.15.03-.32h-2.78v1.2Z"/>
          <path class="cls-3" d="M10,9.08h0s2.89,0,2.89,0l.02-.27.05-.61.03-.32h-3v1.2Z"/>
        </g>
      </g>
    </g>
  </g>
</svg>