<svg width="20" height="20" viewBox="0 0 20 20" fill="none" xmlns="http://www.w3.org/2000/svg">
<g clip-path="url(#clip0_4_332)">
<path d="M15.6765 0H4.32351C1.9357 0 0 1.9357 0 4.32351V15.6765C0 18.0643 1.9357 20 4.32351 20H15.6765C18.0643 20 20 18.0643 20 15.6765V4.32351C20 1.9357 18.0643 0 15.6765 0Z" fill="black"/>
<path d="M15.0047 7.01785C15.6877 7.01785 16.2413 6.46418 16.2413 5.78121C16.2413 5.09823 15.6877 4.54457 15.0047 4.54457C14.3217 4.54457 13.7681 5.09823 13.7681 5.78121C13.7681 6.46418 14.3217 7.01785 15.0047 7.01785Z" fill="white"/>
<path d="M15.9904 7.78391H13.9861C13.9503 7.78391 13.9213 7.81295 13.9213 7.84877V15.3906C13.9213 15.4264 13.9503 15.4555 13.9861 15.4555H15.9904C16.0263 15.4555 16.0553 15.4264 16.0553 15.3906V7.84877C16.0553 7.81295 16.0263 7.78391 15.9904 7.78391Z" fill="white"/>
<path d="M9.22211 5.29968H6.6656C6.69845 5.80311 6.55616 6.24083 6.55616 6.24083L3.44884 15.198C3.41257 15.3025 3.4902 15.4117 3.60089 15.4117H3.73265L5.3764 15.4168C5.44671 15.417 5.50904 15.3715 5.53031 15.3045L6.25517 13.0205L9.82284 13.0314L10.5888 15.3076C10.6109 15.3731 10.6722 15.4172 10.7414 15.4172H12.6922C12.8033 15.4172 12.881 15.3072 12.8439 15.2025L9.37385 5.4069C9.35107 5.34265 9.2903 5.29968 9.22211 5.29968ZM6.79845 11.0725C6.79845 11.0725 7.90769 7.65806 7.99523 7.06709L9.24282 11.0725H6.79845Z" fill="white"/>
</g>
<defs>
<clipPath id="clip0_4_332">
<rect width="20" height="20" fill="white"/>
</clipPath>
</defs>
</svg>
