<svg width="20" height="20" viewBox="0 0 20 20" fill="none" xmlns="http://www.w3.org/2000/svg">
<path d="M15.6765 0H4.32351C1.9357 0 0 1.9357 0 4.32351V15.6765C0 18.0643 1.9357 20 4.32351 20H15.6765C18.0643 20 20 18.0643 20 15.6765V4.32351C20 1.9357 18.0643 0 15.6765 0Z" fill="black"/>
<path d="M6.68053 5.34081H4.70248C4.64189 5.34081 4.59277 5.38992 4.59277 5.45051V15.3934C4.59277 15.454 4.64189 15.5031 4.70248 15.5031H6.68053C6.74111 15.5031 6.79023 15.454 6.79023 15.3934V5.45051C6.79023 5.38992 6.74111 5.34081 6.68053 5.34081Z" fill="white"/>
<path d="M13.21 4.56245V7.63796C13.0851 7.62903 12.9588 7.62452 12.8313 7.62452C9.90637 7.62452 8.21887 9.43407 8.21887 11.6662C8.21887 13.8984 9.68135 15.708 12.8313 15.708C13.7825 15.708 14.6666 15.4556 15.4009 15.0231H15.401C15.405 15.0208 15.4074 15.0165 15.4074 15.0119V4.56245C15.4074 4.47045 15.3328 4.39587 15.2408 4.39587H13.3766C13.2846 4.39587 13.21 4.47045 13.21 4.56245ZM13.21 13.6683C13.0249 13.7179 12.83 13.7444 12.6288 13.7444C11.4193 13.7444 10.4389 12.7874 10.4389 11.6069C10.4389 10.4264 11.4193 9.46946 12.6288 9.46946C12.83 9.46946 13.0249 9.49593 13.21 9.54559V13.6682V13.6683Z" fill="white"/>
</svg>
