<svg width="256" height="256" viewBox="0 0 256 256" fill="none" xmlns="http://www.w3.org/2000/svg">
<g clip-path="url(#clip0_80_253)">
<path d="M218.122 218.127H180.191V158.724C180.191 144.559 179.938 126.324 160.463 126.324C140.707 126.324 137.684 141.757 137.684 157.693V218.123H99.7531V95.9664H136.167V112.66H136.677C144.102 99.9649 157.908 92.3823 172.605 92.9279C211.05 92.9279 218.138 118.216 218.138 151.114L218.122 218.127ZM56.9541 79.2684C44.7972 79.2706 34.9404 69.417 34.9382 57.2599C34.936 45.1028 44.7893 35.2457 56.9462 35.2435C69.1031 35.2413 78.9599 45.0949 78.9621 57.252C78.9631 63.0901 76.645 68.6894 72.5177 72.8183C68.3904 76.9472 62.792 79.2673 56.9541 79.2684ZM75.9197 218.127H37.949V95.9664H75.9197V218.127ZM237.032 0.0181122H18.8886C8.57864 -0.0982379 0.123874 8.16042 -0.00195312 18.4705V237.524C0.119566 247.839 8.57365 256.106 18.8886 255.998H237.032C247.368 256.126 255.855 247.859 255.998 237.524V18.4547C255.851 8.12424 247.363 -0.133938 237.032 0.000645315" fill="black"/>
</g>
<defs>
<clipPath id="clip0_80_253">
<rect width="256" height="256" fill="white"/>
</clipPath>
</defs>
</svg>
