<?xml version="1.0" encoding="UTF-8"?>
<svg id="Ebene_2" data-name="Ebene 2" xmlns="http://www.w3.org/2000/svg" viewBox="0 0 159.97 43.98">
  <defs>
    <style>
      .cls-1 {
        fill: none;
      }

      .cls-1, .cls-2 {
        stroke-width: 0px;
      }
    </style>
  </defs>
  <g id="Ebene_1-2" data-name="Ebene 1">
    <g>
      <g>
        <path class="cls-2" d="M23.4,21.67c0,2.16.24,4.64,1.08,6.96h-7.4c.8-2.32,1.04-4.8,1.08-6.96v-10.8l-6.16,17.76h-2.56L3.32,10.71v10.96c0,2.16.24,4.64,1.08,6.96H0c.88-2.32,1.08-4.8,1.08-6.96v-13.24c0-2-.2-4.28-1.08-5.8h8.64c-.32.36-.44,1.04-.44,1.8,0,1.28.32,2.84.76,4.2l3.8,11.64,3.76-11.64c.4-1.24.64-2.76.64-3.96,0-.88-.12-1.64-.4-2.04h7.72c-.96,1.52-1.08,3.76-1.08,5.8v13.24Z"/>
        <path class="cls-2" d="M30.6.04c-2.16,0-3.64,1.56-3.64,3.56s1.48,3.51,3.64,3.51,3.72-1.55,3.72-3.51S32.84.04,30.6.04ZM33.6,23.39v-7.81c-2.48,1.52-3.9,3.94-3.9,6.56,0,3.56,1.79,4.9,4.38,6.49h.44c-.84-2.32-.92-3.08-.92-5.24ZM27.72,17.66c1.15-2.38,3.22-4.29,5.88-5.46v-4.21c-2.24,1.12-4.36,1.88-6.76,2.56.84,1.84.88,3.44.88,5.12v1.99ZM26.84,28.63h2.3c-.63-.66-1.19-1.43-1.62-2.37-.12.66-.34,1.37-.68,2.37Z"/>
        <path class="cls-2" d="M49.52,23.82c-.73,1.25-1.23,2.76-1.45,4.49,1.55-.95,2.56-2.68,2.89-5.08-.45.2-.93.41-1.44.59ZM44.99,29c-.8-1.28-1.99-2.24-3.25-3.06l-3.28-2.08c-.5-.32-.94-.61-1.33-.89,1.11,3.88,3.94,6.18,7.71,6.18h.14s.06,0,.09-.01c-.03-.05-.05-.09-.08-.14ZM46.88,8.07c-3.2,0-5.69,1.08-7.41,2.88-.86.9-1.53,1.98-2.01,3.19-.35.89-.59,1.85-.73,2.86,3.01.32,5.92,3.83,7.33,6.66l.09-.7c-1.39-1.4-1.91-4.03-1.91-8.01,0-.3,0-.58.02-.84.05-1.44.25-2.39.62-2.95.26-.42.63-.61,1.08-.61.75,0,1.52.44,2.36,1.28.58.58,1.2,1.36,1.86,2.31.43.6.87,1.27,1.34,2.01l1.36-7.28c-1.16-.48-2.56-.8-4-.8ZM41.74,25.94l-3.28-2.08c-.5-.32-.94-.61-1.33-.89,1.11,3.88,3.94,6.18,7.71,6.18h.14s.06,0,.09-.01c-.03-.05-.05-.09-.08-.14-.8-1.28-1.99-2.24-3.25-3.06ZM44.99,29c-.8-1.28-1.99-2.24-3.25-3.06l-3.28-2.08c-.5-.32-.94-.61-1.33-.89,1.11,3.88,3.94,6.18,7.71,6.18h.14s.06,0,.09-.01c-.03-.05-.05-.09-.08-.14Z"/>
        <path class="cls-2" d="M59.36,23.07v-2.99c-.79-.25-1.61-.38-2.46-.38-1.24,0-2.39.22-3.42.64v2.73c0,2.28-.08,3.56-.92,5.56h1.58v-.37c0-3.84.4-6.44,2.12-6.44,1.49,0,2.43,3.04,2.79,6.81h1.23c-.84-2-.92-3.28-.92-5.56ZM63.29,22.88c.02,2.3.16,4.28.51,5.75h1.58c-.23-2.37-.99-4.3-2.09-5.75ZM70.24,28.63c-.8-2.32-1.08-4.08-1.08-6.88v-.21c-.54.23-1.08.46-1.62.68.88,1.8.92,2.8.92,4.8v1.61h1.78ZM69.16,13.71c0-3.64-1.52-5.64-4.32-5.64-2.28,0-4.36,1.32-5.48,3.76V0c-2.24,1.04-4.4,1.88-6.72,2.52.84,1.84.84,3.43.84,5.47v9.17c1.07-.3,2.21-.46,3.42-.46.87,0,1.69.09,2.46.26v-3.97c.68-.88,1.48-1.16,2.12-1.16,1.2,0,1.8.6,1.8,2.64v4.25c.68.5,1.3,1.07,1.85,1.72.32-.43.75-.78,1.26-.99.96-.4,1.88-.79,2.77-1.18v-4.56ZM59.36,23.07v-2.99c-.79-.25-1.61-.38-2.46-.38-1.24,0-2.39.22-3.42.64v2.73c0,2.28-.08,3.56-.92,5.56h1.58v-.37c0-3.84.4-6.44,2.12-6.44,1.49,0,2.43,3.04,2.79,6.81h1.23c-.84-2-.92-3.28-.92-5.56Z"/>
        <path class="cls-2" d="M80.8,8.03c-5.22,0-8.27,3.82-8.81,8.96.01-.01.02-.02.03-.02.42-.21.87-.31,1.32-.31.33,0,.66.05.98.17.55.19,1.03.53,1.38.98.61-.33,1.26-.59,1.93-.76-.03-.34-.03-.68-.03-1.02,0-4.28.96-5.92,2.28-5.92s2.08,1.48,2.08,5.76c0,.59-.04.94-.16,1.16,1.02.26,1.93.74,2.68,1.4,1.04-.75,2.22-1.26,3.48-1.49v-1.19c0-4.2-2.2-7.72-7.16-7.72ZM83.76,24.15c-3.56,0-5.13-1.52-5.78-4.07-1.53.51-2.86,1.69-3.64,3.46-.08-1.28-.48-2.8-1-3.88-.45.22-.91.44-1.38.66.25,2.44,1.1,4.49,2.38,6v-1.62c.68-.88,1.44-1.16,2.12-1.16,1.16,0,1.76.6,1.76,2.64v2.65c.73.21,1.52.32,2.34.32,1.39,0,2.56-.3,3.54-.8v-3.65c.19-.24.39-.44.59-.59-.29.03-.6.04-.93.04ZM86.9,23.63c.31.1.56.28.75.58.1-.34.18-.67.23-.98-.32.15-.64.29-.98.4Z"/>
        <path class="cls-2" d="M90.72,19.91v3.16c0,2.28-.08,3.56-.92,5.56h4.1v-3.21c0-3.11-1.11-5.02-3.18-5.51ZM89.88,2.52c.84,1.84.84,3.43.84,5.47v8.88c1.73.24,3.43,1.08,4.59,2.73.57.79,1.02,1.77,1.29,2.96V0c-2.24,1.04-4.4,1.88-6.72,2.52Z"/>
        <path class="cls-2" d="M103.58,23.54c-.08-1.28-.48-2.8-1-3.88-.75.37-1.52.72-2.3,1.06v2.35c0,2.28-.08,3.56-.92,5.56h4.22v-3.93c.68-.88,1.44-1.16,2.12-1.16.17,0,.32.01.46.04v-3.02c-1.08.63-1.99,1.64-2.58,2.98ZM99.44,2.52c.84,1.84.84,3.43.84,5.47v9.44c.33-.15.66-.3.98-.46.42-.21.87-.31,1.32-.31.33,0,.66.05.98.17.55.19,1.03.53,1.38.98.39-.21.8-.39,1.22-.54V0c-2.24,1.04-4.4,1.88-6.72,2.52Z"/>
        <path class="cls-2" d="M123.04,23.93c-.61.14-1.29.22-2.12.22-3.15,0-4.74-1.19-5.51-3.23-.91.67-1.67,1.64-2.19,2.86-.4-2.58-1.78-3.98-4.15-4,.25,3.73,1.84,6.61,4.27,8.14v-3.22c.68-.88,1.48-1.16,2.12-1.16,1.2,0,1.8.6,1.8,2.64v2.96c.15.01.3.01.46.01,2.45,0,4.23-.95,5.42-2.2v-1.53c0-.53-.03-1.03-.1-1.49ZM117.96,8.03c-5.15,0-8.19,3.72-8.79,8.76,1.82.02,3.36.6,4.55,1.64.62-.45,1.3-.82,2.02-1.08h-.94c-.04-.44-.04-.88-.04-1.32,0-4.28.96-5.92,2.28-5.92s2.08,1.48,2.08,5.76c0,.41-.02.7-.07.92,1.7.04,3.43.62,4.76,1.92h1.31v-2.96c0-4.2-2.2-7.72-7.16-7.72Z"/>
      </g>
      <g>
        <path class="cls-1" d="M39.47,10.95c-.86.9-1.53,1.98-2.01,3.19-1.47.26-2.77.76-3.86,1.44v-3.38c1.73-.76,3.72-1.21,5.87-1.25Z"/>
        <path class="cls-1" d="M47.21,38.67c-1.99,3.21-5.53,5.31-9.63,5.31-5.21,0-9.65-3.38-11.33-8.6-.42-1.29.08-2.7,1.22-3.44l3.12-2.03c-.5-.37-.99-.79-1.45-1.28h4.94c.06.03.12.07.18.11l4.44,2.72c2.48,1.52,3.2,2.64,3.2,4.32,0,1.2-.88,2.2-2.24,2.2-2.04,0-4-1.8-5.88-6.56l-4.68,3.04c1.44,4.48,5.08,6.52,8.48,6.52,3.74,0,6.96-2.45,8.01-5.99.37,1.31.91,2.56,1.62,3.68Z"/>
        <path class="cls-1" d="M46.09,24.03c-.6,1.48-.98,3.15-1.1,4.97-.8-1.28-1.99-2.24-3.25-3.06l-3.28-2.08c-.5-.32-.94-.61-1.33-.89-.35-1.19-.53-2.52-.53-3.98,0-.68.04-1.35.13-1.99,3.01.32,5.92,3.83,7.33,6.66l.09-.7c.52.53,1.16.88,1.94,1.07Z"/>
        <path class="cls-1" d="M34.08,28.63h-4.94c-.63-.66-1.19-1.43-1.62-2.37.17-.87.2-1.64.2-2.87v-5.73c1.15-2.38,3.22-4.29,5.88-5.46v3.38c-2.48,1.52-3.9,3.94-3.9,6.56,0,3.56,1.79,4.9,4.38,6.49Z"/>
        <path class="cls-1" d="M27.72,17.66v5.73c0,1.23-.03,2-.2,2.87-.51-1.12-.82-2.47-.82-4.12s.36-3.12,1.02-4.48Z"/>
        <path class="cls-1" d="M37.13,22.97c-2.26-1.59-2.95-2.64-2.95-4.07,0-1.16.88-1.92,2.12-1.92.14,0,.29.01.43.02-.09.64-.13,1.31-.13,1.99,0,1.46.18,2.79.53,3.98Z"/>
        <path class="cls-1" d="M48.19,15l-.86,6.67h0c-.49.73-.9,1.51-1.24,2.36-.78-.19-1.42-.54-1.94-1.07l1.07-8.34c-.91-.2-1.93-.39-2.96-.51.05-1.44.25-2.39.62-2.95,1.2.16,2.28.37,2.98.53.16.03.31.08.46.14.58.58,1.2,1.36,1.86,2.31.04.28.05.57.01.86Z"/>
        <path class="cls-2" d="M45.07,29.14c.54.93.87,2.03.87,3.36,0,.87-.12,1.7-.35,2.48h0c-1.05,3.55-4.27,6-8.01,6-3.4,0-7.04-2.04-8.48-6.52l4.68-3.04c1.88,4.76,3.84,6.56,5.88,6.56,1.36,0,2.24-1,2.24-2.2,0-1.68-.72-2.8-3.2-4.32l-4.44-2.72c-.06-.04-.12-.08-.18-.11-2.59-1.59-4.38-2.93-4.38-6.49,0-2.62,1.42-5.04,3.9-6.56,1.09-.68,2.39-1.18,3.86-1.44.48-1.21,1.15-2.29,2.01-3.19.13-.01.26-.01.39-.01,1.01,0,2.06.1,3.02.22-.37.56-.57,1.51-.62,2.95,1.03.12,2.05.31,2.96.51l-1.07,8.34-.09.7c-1.41-2.83-4.32-6.34-7.33-6.66-.14-.01-.29-.02-.43-.02-1.24,0-2.12.76-2.12,1.92,0,1.43.69,2.48,2.95,4.07.39.28.83.57,1.33.89l3.28,2.08c1.26.82,2.45,1.78,3.25,3.06.03.05.05.09.08.14Z"/>
        <path class="cls-2" d="M48.18,14.14c-.66-.95-1.28-1.73-1.86-2.31.99.39,1.7,1.27,1.86,2.31Z"/>
        <path class="cls-2" d="M48.94,32.5c0,.86-.09,1.69-.26,2.49-.48-1.33-.74-2.87-.74-4.61,0-.68.04-1.33.11-1.96.55,1.15.89,2.49.89,4.08Z"/>
        <path class="cls-2" d="M45.07,29.14s-.05-.09-.08-.14c-.8-1.28-1.99-2.24-3.25-3.06l-3.28-2.08c-.5-.32-.94-.61-1.33-.89-2.26-1.59-2.95-2.64-2.95-4.07,0-1.16.88-1.92,2.12-1.92.14,0,.29.01.43.02,3.01.32,5.92,3.83,7.33,6.66l.09-.7,1.07-8.34c-.91-.2-1.93-.39-2.96-.51-.82-.11-1.65-.17-2.4-.17-.84,0-1.64.07-2.4.2-1.47.26-2.77.76-3.86,1.44-2.48,1.52-3.9,3.94-3.9,6.56,0,3.56,1.79,4.9,4.38,6.49.06.03.12.07.18.11l4.44,2.72c2.48,1.52,3.2,2.64,3.2,4.32,0,1.2-.88,2.2-2.24,2.2-2.04,0-4-1.8-5.88-6.56l-4.68,3.04c1.44,4.48,5.08,6.52,8.48,6.52,3.74,0,6.96-2.45,8.01-5.99h0c.23-.79.35-1.62.35-2.49,0-1.33-.33-2.43-.87-3.36Z"/>
        <path class="cls-1" d="M65.46,30.18v4.6c0,2.05-.06,2.9-.69,4.4-.2.49-.27,1.01-.2,1.53-2.06,2-4.84,3.15-8.11,3.15-4.24,0-7.35-2.13-9.25-5.19.69-1.11,1.19-2.35,1.47-3.68,1.34,3.79,4.38,5.87,7.78,5.87,5.36,0,9-4,9-10.68Z"/>
        <path class="cls-1" d="M48.68,34.99c-.28,1.33-.78,2.57-1.47,3.68-.71-1.12-1.25-2.37-1.62-3.68h0c.23-.79.35-1.62.35-2.49,0-1.33-.33-2.43-.87-3.36,1.12-.03,2.11-.3,2.95-.81.02.02.03.05.03.08h0c-.07.64-.11,1.29-.11,1.97,0,1.74.26,3.28.74,4.61Z"/>
        <path class="cls-1" d="M48.02,28.33c-.84.51-1.83.78-2.95.81-.03-.05-.05-.09-.08-.14.12-1.82.5-3.49,1.1-4.97.28.07.58.11.91.14-.09.61-.37,1.15-.78,1.57.69.73,1.33,1.58,1.8,2.59Z"/>
        <path class="cls-2" d="M45.07,29.14c.54.93.87,2.03.87,3.36,0,.87-.12,1.7-.35,2.48-.44-1.48-.65-3.04-.65-4.6,0-.42.01-.83.04-1.23,0-.05,0-.1.01-.15.03.05.05.09.08.14Z"/>
        <path class="cls-1" d="M53.48,17.16v3.18c-1.65.67-3,1.86-3.96,3.48-.62.21-1.28.37-1.96.37-.19,0-.38-.01-.56-.02.02-.04.02-.09.03-.13l.3-2.36h0c1.47-2.22,3.58-3.79,6.15-4.52Z"/>
        <path class="cls-1" d="M47.33,21.68l-.3,2.36s-.01.09-.03.13c-.33-.03-.63-.07-.91-.14.34-.85.75-1.63,1.24-2.35Z"/>
        <path class="cls-1" d="M63.29,22.87c-1.07-1.36-2.41-2.31-3.93-2.79v-3.12c1.49.32,2.8.93,3.92,1.76v3.15c0,.34,0,.67,0,1Z"/>
        <path class="cls-1" d="M49.52,23.82c-.73,1.25-1.23,2.76-1.45,4.49-.02.01-.03.02-.05.02-.47-1.01-1.11-1.86-1.8-2.59.41-.42.69-.96.78-1.57.18.01.37.02.56.02.68,0,1.34-.16,1.96-.37Z"/>
        <path class="cls-2" d="M65.38,28.63c-.23-2.37-.99-4.3-2.09-5.75h0c-1.07-1.37-2.41-2.32-3.93-2.8-.79-.25-1.61-.38-2.46-.38-1.24,0-2.39.22-3.42.64-1.65.67-3,1.86-3.96,3.48-.73,1.25-1.23,2.76-1.45,4.49-.02.01-.03.02-.05.02.02.02.03.05.03.08h0c-.07.64-.11,1.29-.11,1.97,0,1.74.26,3.28.74,4.61,1.34,3.79,4.38,5.87,7.78,5.87,5.36,0,9-4,9-10.68v-1.55h-.08ZM57.1,38.74c-1.91,0-2.91-5-2.96-10.11v-.37c0-3.84.4-6.44,2.12-6.44,1.49,0,2.43,3.04,2.79,6.81.11,1.18.17,2.42.17,3.67,0,3.88-.4,6.44-2.12,6.44Z"/>
        <path class="cls-1" d="M65.46,27.02v1.61h-.08c-.23-2.37-.99-4.3-2.09-5.75h0c0-.34,0-.67,0-1.01v-3.15c.68.5,1.3,1.07,1.85,1.72-.17.22-.3.46-.4.72-.29.77-.25,1.63.12,2.38.59,1.21.61,1.68.61,3.48Z"/>
        <path class="cls-1" d="M59.36,16.96v3.12c-.79-.25-1.61-.38-2.46-.38-1.24,0-2.39.22-3.42.64v-3.18c1.07-.3,2.21-.46,3.42-.46.87,0,1.69.09,2.46.26Z"/>
        <path class="cls-2" d="M65.38,28.63c-.23-2.37-.99-4.3-2.09-5.75h0c-1.07-1.37-2.41-2.32-3.93-2.8-.79-.25-1.61-.38-2.46-.38-1.24,0-2.39.22-3.42.64-1.65.67-3,1.86-3.96,3.48-.73,1.25-1.23,2.76-1.45,4.49-.01.03-.01.07-.02.1h0c-.07.64-.11,1.29-.11,1.97,0,1.74.26,3.28.74,4.61,1.34,3.79,4.38,5.87,7.78,5.87,5.36,0,9-4,9-10.68,0-.54-.03-1.05-.08-1.55ZM57.1,38.74c-1.91,0-2.91-5-2.96-10.11v-.37c0-3.84.4-6.44,2.12-6.44,1.49,0,2.43,3.04,2.79,6.81.11,1.18.17,2.42.17,3.67,0,3.88-.4,6.44-2.12,6.44Z"/>
        <path class="cls-1" d="M59.05,28.63h-4.91v-.37c0-3.84.4-6.44,2.12-6.44,1.49,0,2.43,3.04,2.79,6.81Z"/>
        <path class="cls-1" d="M59.22,32.3c0,3.88-.4,6.44-2.12,6.44-1.91,0-2.91-5-2.96-10.11h4.91c.11,1.18.17,2.42.17,3.67Z"/>
        <path class="cls-1" d="M65.46,28.63v-1.61c0-1.8-.02-2.27-.61-3.48-.37-.75-.41-1.61-.12-2.38.1-.26.23-.5.4-.72,1.88,2.2,2.98,5.15,3.26,8.19h-2.93Z"/>
        <path class="cls-1" d="M68.46,30.18c0,4.45-1.43,8.11-3.89,10.53-.07-.52,0-1.04.2-1.53.63-1.5.69-2.35.69-4.4v-6.15h2.93c.05.52.07,1.03.07,1.55Z"/>
        <path class="cls-1" d="M95.9,43.2c-.28.09-.58.14-.88.14h-6.48c-.62,0-1.2-.19-1.68-.52-.49.33-1.08.52-1.68.52h-6.96c-.54,0-1.04-.14-1.48-.39-.45.25-.95.39-1.48.39h-7.72c-1,0-1.94-.51-2.5-1.34-.26-.39-.42-.84-.47-1.29,2.46-2.42,3.89-6.08,3.89-10.53v4.6c0,2.28-.08,3.56-.92,5.56h7.72c-.88-2-.92-3.28-.92-5.56v-8.46c1.03,1.21,2.35,2.08,3.88,2.51v11.51h6.96c-.76-2.28-1.08-4.72-1.08-6.88v-5.11c1.91-.96,3.05-2.63,3.55-4.14.24.41.37,1.04.37,1.97v7.36c0,2.08.12,5.12.52,6.8h5.24c0,.58.17,1.16.5,1.66.39.58.97,1.01,1.62,1.2Z"/>
        <path class="cls-1" d="M87.96,18.71h-10.24c.06.48.15.94.26,1.37-1.53.51-2.86,1.69-3.64,3.46-.08-1.28-.48-2.8-1-3.88-.45.22-.91.44-1.38.66-.05-.51-.08-1.03-.08-1.57,0-.6.03-1.19.11-1.76.01-.01.02-.02.03-.02.42-.21.87-.31,1.32-.31.33,0,.66.05.98.17.55.19,1.03.53,1.38.98.61-.33,1.26-.59,1.93-.76-.01.1,0,.2.01.3h3c.65,0,.99-.03,1.16-.32,1.02.26,1.93.74,2.68,1.4,1.04-.75,2.22-1.26,3.48-1.49v1.77Z"/>
        <path class="cls-1" d="M81.8,17.03c-.17.29-.51.32-1.16.32h-3c-.01-.1-.02-.2-.01-.3.69-.18,1.41-.27,2.15-.27s1.39.08,2.02.25Z"/>
        <path class="cls-1" d="M71.88,18.75c0,.54.03,1.06.08,1.57-.92.42-1.86.82-2.8,1.22v-3.27c.98-.42,1.92-.84,2.83-1.28-.08.57-.11,1.16-.11,1.76Z"/>
        <path class="cls-1" d="M90.72,16.87v3.04c-.35-.09-.73-.13-1.14-.13-2.36,0-4.52,1.44-5.6,4-.4-2.6-1.8-4-4.2-4-.62,0-1.22.1-1.8.3-.11-.43-.2-.89-.26-1.37h10.24v-1.77c.53-.11,1.07-.16,1.62-.16.38,0,.76.03,1.14.09Z"/>
        <path class="cls-1" d="M94.08,23.54c.6,1.21.62,1.68.62,3.48v1.61h-.8v-3.21c0-3.11-1.11-5.02-3.18-5.51v-3.04c1.73.24,3.43,1.08,4.59,2.73-.62.35-1.09.9-1.34,1.56-.29.77-.25,1.63.11,2.38Z"/>
        <path class="cls-1" d="M87.65,24.21c-.5,1.51-1.64,3.18-3.55,4.14v-3.65c.19-.24.39-.44.59-.59.87-.07,1.57-.24,2.21-.48.31.1.56.28.75.58Z"/>
        <path class="cls-1" d="M78.22,26.18v2.65c-1.53-.43-2.85-1.3-3.88-2.51v-1.62c.68-.88,1.44-1.16,2.12-1.16,1.16,0,1.76.6,1.76,2.64Z"/>
        <path class="cls-1" d="M94.7,28.63v6.15c0,1.54-.03,2.4-.31,3.37-.36-1.6-.49-3.21-.49-4.69v-4.83h.8Z"/>
        <path class="cls-1" d="M69.16,21.54c-.54.23-1.08.46-1.62.68.88,1.8.92,2.8.92,4.8v1.61h-.07c-.28-3.04-1.38-5.99-3.26-8.19.32-.43.75-.78,1.26-.99.96-.4,1.88-.79,2.77-1.18v3.27Z"/>
        <path class="cls-2" d="M95.02,40.34h-6.48c-.4-1.68-.52-4.72-.52-6.8v-7.36c0-.93-.13-1.56-.37-1.97-.19-.3-.44-.48-.75-.58-.64.24-1.34.41-2.21.48-.2.15-.4.35-.59.59v8.76c0,2.16.32,4.6,1.08,6.88h-6.96v-14.16c0-2.04-.6-2.64-1.76-2.64-.68,0-1.44.28-2.12,1.16v10.08c0,2.28.04,3.56.92,5.56h-7.72c.84-2,.92-3.28.92-5.56v-4.6c0-.52-.02-1.03-.07-1.55h.07v-1.61c0-2-.04-3-.92-4.8.54-.22,1.08-.45,1.62-.68.94-.4,1.88-.8,2.8-1.22.47-.22.93-.44,1.38-.66.52,1.08.92,2.6,1,3.88.78-1.77,2.11-2.95,3.64-3.46.58-.2,1.18-.3,1.8-.3,2.4,0,3.8,1.4,4.2,4,1.08-2.56,3.24-4,5.6-4,.41,0,.79.04,1.14.13,2.07.49,3.18,2.4,3.18,5.51v8.04c0,1.48.13,3.09.49,4.69.16.74.37,1.47.63,2.19Z"/>
        <path class="cls-2" d="M98.02,40.34h-1.24c.34-.82.56-1.51.69-2.21.1.41.22.8.36,1.17.12.34.19.69.19,1.04Z"/>
        <path class="cls-2" d="M94.39,38.15c-.36-1.6-.49-3.21-.49-4.69v-8.04c0-3.11-1.11-5.02-3.18-5.51-.35-.09-.73-.13-1.14-.13-2.36,0-4.52,1.44-5.6,4-.4-2.6-1.8-4-4.2-4-.62,0-1.22.1-1.8.3-1.53.51-2.86,1.69-3.64,3.46-.08-1.28-.48-2.8-1-3.88-.45.22-.91.44-1.38.66-.92.42-1.86.82-2.8,1.22-.54.23-1.08.46-1.62.68.88,1.8.92,2.8.92,4.8v7.76c0,2.28-.08,3.56-.92,5.56h7.72c-.88-2-.92-3.28-.92-5.56v-10.08c.68-.88,1.44-1.16,2.12-1.16,1.16,0,1.76.6,1.76,2.64v14.16h6.96c-.76-2.28-1.08-4.72-1.08-6.88v-8.76c.19-.24.39-.44.59-.59.52-.42,1.07-.57,1.53-.57.25,0,.48.03.68.09.31.1.56.28.75.58.24.41.37,1.04.37,1.97v7.36c0,2.08.12,5.12.52,6.8h6.48c-.26-.72-.47-1.45-.63-2.19Z"/>
        <path class="cls-1" d="M96.9,26.76v1.87h-2.2v-1.61c0-1.8-.02-2.27-.62-3.48-.36-.75-.4-1.61-.11-2.38.25-.66.72-1.21,1.34-1.56.57.79,1.02,1.77,1.29,2.96v.51c0,1.5.03,2.57.3,3.69Z"/>
        <path class="cls-1" d="M98.02,40.34c0,.61-.19,1.2-.54,1.71-.39.56-.95.96-1.58,1.15-.65-.19-1.23-.62-1.62-1.2-.33-.5-.5-1.08-.5-1.66h1.24c-.26-.72-.47-1.45-.63-2.19.28-.97.31-1.83.31-3.37v-6.15h2.2v4.83c0,1.68.19,3.27.57,4.67-.13.7-.35,1.39-.69,2.21h1.24Z"/>
        <path class="cls-2" d="M94.39,38.15c.16.74.37,1.47.63,2.19h-1.24c0-.4.07-.79.23-1.16.16-.38.28-.71.38-1.03Z"/>
        <path class="cls-1" d="M127.15,41.11c-.08.33-.23.65-.43.94-.57.81-1.48,1.29-2.46,1.29h-6.48c-.62,0-1.2-.19-1.68-.52-.49.33-1.08.52-1.68.52h-6.96c-.54,0-1.04-.14-1.48-.39-.45.25-.95.39-1.48.39h-7.72c-.3,0-.6-.05-.88-.14.63-.19,1.19-.59,1.58-1.15.35-.51.54-1.1.54-1.71h6.48c-.88-2-.92-3.28-.92-5.56v-6.15h3.5c-.78-1.85-.9-3.08-.92-5.05.86.16,1.3.85,1.3,2.6v14.16h6.96c-.76-2.28-1.08-4.72-1.08-6.88v-5.54c1.14.72,2.46,1.14,3.92,1.22v4.4c0,2.08.12,5.12.52,6.8h6.48c-.84-2.28-1.12-4.72-1.12-6.88v-.05c.53,3.22,1.95,5.88,4.01,7.7Z"/>
        <path class="cls-1" d="M107.08,28.63h-3.5v-3.93c.68-.88,1.44-1.16,2.12-1.16.17,0,.32.01.46.04.02,1.97.14,3.2.92,5.05Z"/>
        <path class="cls-1" d="M106.16,17.27v3.29c-1.08.63-1.99,1.64-2.58,2.98-.08-1.28-.48-2.8-1-3.88-.75.37-1.52.72-2.3,1.06v-3.29c.33-.15.66-.3.98-.46.42-.21.87-.31,1.32-.31.33,0,.66.05.98.17.55.19,1.03.53,1.38.98.39-.21.8-.39,1.22-.54Z"/>
        <path class="cls-1" d="M109.04,18.75c0,.35.01.69.03,1.03h-.05c-1.01,0-1.99.27-2.86.78v-3.29c.9-.32,1.86-.49,2.86-.49.05,0,.1,0,.15,0-.09.63-.13,1.29-.13,1.96Z"/>
        <path class="cls-1" d="M114.88,18.71c.11.82.27,1.56.53,2.21-.91.67-1.67,1.64-2.19,2.86-.4-2.58-1.78-3.98-4.15-4-.02-.34-.03-.68-.03-1.03,0-.67.04-1.33.13-1.96,1.82.02,3.36.6,4.55,1.64.62-.45,1.3-.82,2.02-1.08h2.06c.79,0,1.13-.04,1.25-.56,1.7.04,3.43.62,4.76,1.92h-8.93Z"/>
        <path class="cls-1" d="M119.05,16.79c-.12.52-.46.56-1.25.56h-2.06c.96-.37,2-.57,3.08-.57.08,0,.15,0,.23,0Z"/>
        <path class="cls-1" d="M125.5,21.4h0c-.48.66-.89,1.38-1.23,2.16-.38.15-.78.27-1.23.37-.37-2.69-1.83-4.15-4.22-4.15-1.23,0-2.41.39-3.41,1.14-.26-.65-.42-1.39-.53-2.21h8.93c.69.69,1.28,1.57,1.69,2.69Z"/>
        <path class="cls-1" d="M100.28,20.72c-1.17.53-2.35,1.02-3.5,1.5.88,1.8.92,2.8.92,4.8v7.76c0,1.35-.03,2.35-.23,3.35-.38-1.4-.57-2.99-.57-4.67v-4.83h.62c-.29-.69-.49-1.29-.62-1.87v-1.34c0-1.07-.11-2.02-.3-2.86v-3.52c1.3-.54,2.51-1.06,3.68-1.61v3.29Z"/>
        <path class="cls-2" d="M96.6,19.04v3.52c-.27-1.19-.72-2.17-1.29-2.96.1-.05.21-.1.32-.15.33-.14.65-.27.97-.41Z"/>
        <path class="cls-1" d="M96.9,25.42v1.34c-.27-1.12-.3-2.19-.3-3.69v-.51c.19.84.3,1.79.3,2.86Z"/>
        <path class="cls-1" d="M97.52,28.63h-.62v-1.87c.13.58.33,1.18.62,1.87Z"/>
        <path class="cls-1" d="M117.26,26.18v2.96c-1.46-.08-2.78-.5-3.92-1.22v-3.22c.68-.88,1.48-1.16,2.12-1.16,1.2,0,1.8.6,1.8,2.64Z"/>
        <path class="cls-1" d="M124.27,23.56c-.45,1-.8,2.1-1.03,3.28-.02.04-.06.08-.1.11v-1.53c0-.53-.03-1.03-.1-1.49.45-.1.85-.22,1.23-.37Z"/>
        <path class="cls-2" d="M123.14,33.46c0,2.16.28,4.6,1.12,6.88h-6.48c-.4-1.68-.52-4.72-.52-6.8v-7.36c0-2.04-.6-2.64-1.8-2.64-.64,0-1.44.28-2.12,1.16v8.76c0,2.16.32,4.6,1.08,6.88h-6.96v-14.16c0-1.75-.44-2.44-1.3-2.6-.14-.03-.29-.04-.46-.04-.68,0-1.44.28-2.12,1.16v10.08c0,2.28.04,3.56.92,5.56h-7.72c.34-.82.56-1.51.69-2.21.2-1,.23-2,.23-3.35v-7.76c0-2-.04-3-.92-4.8,1.15-.48,2.33-.97,3.5-1.5.78-.34,1.55-.69,2.3-1.06.52,1.08.92,2.6,1,3.88.59-1.34,1.5-2.35,2.58-2.98.87-.51,1.85-.78,2.86-.78h.05c2.37.02,3.75,1.42,4.15,4,.52-1.22,1.28-2.19,2.19-2.86,1-.75,2.18-1.14,3.41-1.14,2.39,0,3.85,1.46,4.22,4.15.07.46.1.96.1,1.49v1.53s.08-.07.1-.11c-.04.19-.07.37-.1.56v6.06Z"/>
        <path class="cls-2" d="M126.14,27.76v5.36c-.16-.83-.24-1.72-.24-2.66s.08-1.84.24-2.7Z"/>
        <path class="cls-2" d="M123.14,33.46v-8.04c0-.53-.03-1.03-.1-1.49-.37-2.69-1.83-4.15-4.22-4.15-1.23,0-2.41.39-3.41,1.14-.91.67-1.67,1.64-2.19,2.86-.4-2.58-1.78-3.98-4.15-4h-.05c-1.01,0-1.99.27-2.86.78-1.08.63-1.99,1.64-2.58,2.98-.08-1.28-.48-2.8-1-3.88-.75.37-1.52.72-2.3,1.06-1.17.53-2.35,1.02-3.5,1.5.88,1.8.92,2.8.92,4.8v7.76c0,1.35-.03,2.35-.23,3.35-.13.7-.35,1.39-.69,2.21h7.72c-.88-2-.92-3.28-.92-5.56v-10.08c.68-.88,1.44-1.16,2.12-1.16.17,0,.32.01.46.04.86.16,1.3.85,1.3,2.6v14.16h6.96c-.76-2.28-1.08-4.72-1.08-6.88v-8.76c.68-.88,1.48-1.16,2.12-1.16,1.2,0,1.8.6,1.8,2.64v7.36c0,2.08.12,5.12.52,6.8h6.48c-.84-2.28-1.12-4.72-1.12-6.88Z"/>
        <path class="cls-1" d="M127.15,41.11c-2.06-1.82-3.48-4.48-4.01-7.7v-6.01c.03-.19.06-.37.1-.56,1.06-1.13,1.63-2.49,1.8-3.61-.25.12-.5.23-.77.33.34-.78.75-1.5,1.23-2.15.41,1.1.64,2.43.64,4.01v2.34c-.16.86-.24,1.76-.24,2.7s.08,1.83.24,2.66v.34c0,2.16.32,4.18.93,5.84.22.59.24,1.22.08,1.81Z"/>
        <path class="cls-2" d="M122.9,30.46c0-1.07.08-2.09.24-3.06v6.01c-.16-.94-.24-1.92-.24-2.95Z"/>
        <path class="cls-1" d="M125.04,23.23c-.17,1.12-.74,2.48-1.8,3.61.23-1.18.58-2.28,1.03-3.28.27-.1.52-.21.77-.33Z"/>
        <path class="cls-1" d="M142.14,19.66s-.1.05-.15.07c-.77.34-1.36,1-1.62,1.8-.05.16-.09.32-.11.49-1.17-1.4-2.96-2.28-5.44-2.28-4.9,0-7.88,3.36-8.68,8.02v-2.34c0-1.58-.23-2.91-.64-4.01h0c2.09-2.95,5.34-4.67,9.32-4.67,3.01,0,5.53,1.06,7.32,2.92Z"/>
        <path class="cls-1" d="M141.78,30.42v4.04c0,.19,0,.37-.01.54-1.08.49-2.22.86-3.99.86-4.16,0-5.6-2.08-6.04-5.44h10.04Z"/>
        <path class="cls-2" d="M143.86,22.17c-.21.1-.42.19-.64.29,1.16,2.04,1.56,3.72,1.56,5.92v3.1c.13-.33.2-.69.2-1.06v-2.96c0-1.99-.39-3.77-1.12-5.29ZM144.78,34.46c0,.54-.01,1.03-.03,1.5.05-.19.08-.39.11-.58.06-.43.03-.86-.08-1.26v.34ZM134.82,19.74c-4.9,0-7.88,3.36-8.68,8.02-.16.86-.24,1.76-.24,2.7s.08,1.83.24,2.66c.88,4.74,4.12,7.74,8.44,7.74s6.56-2.95,7.19-5.29h0c.06-.22.1-.43.13-.63-.04.02-.09.04-.13.06-1.08.49-2.22.86-3.99.86-4.16,0-5.6-2.08-6.04-5.44h10.24v-2.96c0-2.1-.55-4.03-1.72-5.44-1.17-1.4-2.96-2.28-5.44-2.28ZM134.66,29.06h-3c-.04-.44-.04-.88-.04-1.32,0-4.28.96-5.92,2.28-5.92s2.08,1.48,2.08,5.76c0,1.4-.2,1.48-1.32,1.48Z"/>
        <path class="cls-1" d="M141.16,41.65c-1.69,1.34-3.91,2.21-6.58,2.21-2.92,0-5.47-1-7.43-2.75.16-.59.14-1.22-.08-1.81-.61-1.66-.93-3.68-.93-5.84v-.34c.88,4.74,4.12,7.74,8.44,7.74s6.56-2.95,7.19-5.29c-.04,1.33-.2,2.26-.73,3.75-.28.77-.23,1.61.12,2.33Z"/>
        <path class="cls-2" d="M141.98,30.42v-2.96c0-2.1-.55-4.03-1.72-5.44-1.17-1.4-2.96-2.28-5.44-2.28-4.9,0-7.88,3.36-8.68,8.02-.16.86-.24,1.76-.24,2.7s.08,1.83.24,2.66c.88,4.74,4.12,7.74,8.44,7.74s6.56-2.95,7.19-5.29h0c.06-.22.1-.43.13-.63-.04.02-.09.04-.13.06-1.08.49-2.22.86-3.99.86-4.16,0-5.6-2.08-6.04-5.44h10.24ZM134.66,29.06h-3c-.04-.44-.04-.88-.04-1.32,0-4.28.96-5.92,2.28-5.92s2.08,1.48,2.08,5.76c0,1.4-.2,1.48-1.32,1.48Z"/>
        <path class="cls-1" d="M135.98,27.58c0,1.4-.2,1.48-1.32,1.48h-3c-.04-.44-.04-.88-.04-1.32,0-4.28.96-5.92,2.28-5.92s2.08,1.48,2.08,5.76Z"/>
        <path class="cls-1" d="M144.78,31.48c-.18.48-.48.9-.87,1.23.42.38.72.87.87,1.41v.34c0,.54-.01,1.03-.03,1.5-.46,2.12-1.69,4.2-3.59,5.69-.35-.72-.4-1.56-.12-2.33.53-1.49.69-2.42.73-3.75h0c.06-.22.1-.43.13-.63-.04.02-.09.04-.13.06.01-.17.01-.35.01-.54v-4.04h.2v-2.96c0-2.1-.55-4.03-1.72-5.44.02-.17.06-.33.11-.49.26-.8.85-1.46,1.62-1.8.05-.02.1-.05.15-.07.69.72,1.27,1.56,1.72,2.51-.21.1-.42.19-.64.29,1.16,2.04,1.56,3.72,1.56,5.92v3.1Z"/>
        <path class="cls-2" d="M141.77,35s.09-.04.13-.06c-.03.2-.07.41-.13.62,0-.18.01-.36,0-.56Z"/>
        <path class="cls-2" d="M141.78,28.38c0-1.76-.31-2.92-1.17-4.44-.34-.58-.45-1.27-.35-1.92,1.17,1.41,1.72,3.34,1.72,5.44v2.96h-.2v-2.04Z"/>
        <path class="cls-1" d="M144.78,31.48v2.64c-.15-.54-.45-1.03-.87-1.41.39-.33.69-.75.87-1.23Z"/>
        <path class="cls-1" d="M159.96,20.27l-.84,8.6c-.12,1.26-1.03,2.31-2.26,2.62-.24.06-.48.09-.72.09-.98,0-1.92-.48-2.48-1.31v4.19c0,1.99.07,2.98.76,4.81.35.92.23,1.96-.33,2.77s-1.49,1.3-2.47,1.3h-7.76c-.98,0-1.9-.48-2.46-1.28-.09-.13-.17-.27-.24-.41,1.9-1.49,3.13-3.57,3.59-5.69-.06,1.42-.26,2.64-.89,4.38h7.76c-.88-2.32-.96-3.72-.96-5.88v-5.44c0-3.28.28-4.48,1.4-4.48.92,0,1.96.84,4.08,4.04l.84-8.6c-.44-.12-1.12-.2-1.68-.2-2.36,0-3.96.92-4.8,4.48-.24-1.48-.8-3.6-1.52-4.6-1.75.96-3.34,1.71-5.12,2.51-.45-.95-1.03-1.79-1.72-2.51,1.81-.82,3.53-1.6,5.39-2.63.46-.25.95-.37,1.45-.37.87,0,1.73.38,2.31,1.09,1.11-.65,2.44-.97,4.01-.97.83,0,1.77.12,2.47.31,1.41.38,2.34,1.73,2.19,3.18Z"/>
        <path class="cls-2" d="M156.98,19.98l-.84,8.6c-2.12-3.2-3.16-4.04-4.08-4.04-1.12,0-1.4,1.2-1.4,4.48v5.44c0,2.16.08,3.56.96,5.88h-7.76c.63-1.74.83-2.96.89-4.38.02-.47.03-.96.03-1.5v-6.08c0-2.2-.4-3.88-1.56-5.92.22-.1.43-.19.64-.29,1.78-.8,3.37-1.55,5.12-2.51.72,1,1.28,3.12,1.52,4.6.84-3.56,2.44-4.48,4.8-4.48.56,0,1.24.08,1.68.2Z"/>
        <path class="cls-2" d="M155.3,19.78c-2.36,0-3.96.92-4.8,4.48-.24-1.48-.8-3.6-1.52-4.6-1.75.96-3.34,1.71-5.12,2.51-.21.1-.42.19-.64.29,1.16,2.04,1.56,3.72,1.56,5.92v6.08c0,.54-.01,1.03-.03,1.5-.06,1.42-.26,2.64-.89,4.38h7.76c-.88-2.32-.96-3.72-.96-5.88v-5.44c0-3.28.28-4.48,1.4-4.48.92,0,1.96.84,4.08,4.04l.84-8.6c-.44-.12-1.12-.2-1.68-.2Z"/>
      </g>
    </g>
  </g>
</svg>