<svg width="16" height="16" viewBox="0 0 16 16" fill="none" xmlns="http://www.w3.org/2000/svg">
<path d="M14.8306 3.98114L14.7811 4.00686L14.8306 3.98104C14.637 3.60941 14.4119 3.25499 14.1614 2.92724C14.1276 2.88388 14.0931 2.84077 14.0526 2.79011C14.029 2.76006 14.0051 2.73226 13.9821 2.70581C13.9242 2.63566 13.8675 2.56988 13.8082 2.5055C13.766 2.45943 13.7241 2.41489 13.6812 2.36947L13.4244 2.11275C13.3976 2.08703 13.3691 2.0608 13.34 2.03421C13.236 1.94087 13.152 1.86864 13.068 1.80026C12.3435 1.20643 11.5413 0.752995 10.6836 0.452498C9.93898 0.192178 9.19251 0.042424 8.46493 0.00746213C8.31303 -0.000276673 8.14646 -0.00189579 7.94048 0.00213827C7.87942 0.00345551 7.82242 0.00584266 7.76567 0.00812039L7.75189 0.00877949C6.21544 0.0871006 4.75568 0.619815 3.53032 1.54954C3.43583 1.62196 3.34198 1.69614 3.24948 1.77303C3.1644 1.84351 3.08507 1.91266 3.00713 1.98423C2.80987 2.16362 2.61764 2.35806 2.43569 2.56226C2.38506 2.61934 2.33556 2.67672 2.28556 2.73577L2.22038 2.81442C2.18292 2.86017 2.14458 2.90951 2.10509 2.96036C2.07207 3.00153 2.04667 3.03583 2.02172 3.06961C1.98824 3.11382 1.95583 3.15773 1.92358 3.20293C1.85959 3.29192 1.7985 3.38276 1.73881 3.47359C1.67353 3.57228 1.61398 3.67041 1.56439 3.75351C1.53602 3.8012 1.50868 3.84816 1.48129 3.89651C0.872397 4.97709 0.533976 6.20558 0.502499 7.45183C0.501237 7.51871 0.5 7.58221 0.5 7.6467C0.5 7.83743 0.507469 8.03565 0.522123 8.23639C0.528599 8.31885 0.53639 8.40195 0.545968 8.49018C0.54723 8.50544 0.548137 8.516 0.549619 8.52448C0.5598 8.61032 0.568908 8.68645 0.580324 8.76029L0.584693 8.79232C0.597371 8.87772 0.611636 8.9643 0.628376 9.04916C0.641658 9.12084 0.654533 9.18911 0.669928 9.25731L0.690068 9.3499C0.704173 9.41384 0.719569 9.4783 0.736089 9.54052L0.751016 9.6002C0.771543 9.67559 0.793612 9.7563 0.818008 9.83591C0.843447 9.92402 0.870614 10.0081 0.898989 10.0918L0.908952 10.1219C0.9359 10.1989 0.961284 10.2709 0.988452 10.3422L0.997758 10.3674C1.0263 10.4416 1.05618 10.5157 1.08744 10.5896C1.11891 10.6646 1.1516 10.7393 1.18442 10.8139C1.19334 10.834 1.20376 10.856 1.21438 10.8752L1.21927 10.8848C1.24764 10.9467 1.27728 11.0085 1.30783 11.0684C1.35602 11.1662 1.4081 11.2643 1.47169 11.3774C1.5909 11.5886 1.72068 11.7962 1.85737 11.9943C1.89771 12.053 1.9384 12.1106 1.9799 12.1655C2.00374 12.1996 2.02493 12.228 2.04644 12.2556C2.09683 12.3236 2.14707 12.3881 2.19718 12.4494C2.21189 12.4691 2.22071 12.4796 2.22845 12.488C3.69061 14.2711 5.84787 15.2939 8.14706 15.2939C10.3092 15.2939 12.3048 14.4195 13.7663 12.8319L13.8995 12.6871L13.7102 12.7404C13.0531 12.9252 12.3826 13.0367 11.7173 13.0716L11.7023 13.0724L11.6897 13.0807C10.7161 13.7177 9.58528 14.08 8.41957 14.1284L8.34627 14.1314L8.34566 14.1307L8.31877 14.1313C8.26317 14.1326 8.20543 14.1333 8.14706 14.1333C7.05035 14.1333 5.96662 13.8543 5.01244 13.3263C4.93898 13.2869 4.86348 13.2424 4.79095 13.199L4.76998 13.1856C4.37369 12.9459 3.99605 12.6571 3.64772 12.3273C3.04132 11.7504 2.55482 11.0569 2.20177 10.2655C1.99647 9.8083 1.84823 9.31425 1.76121 8.79775L1.74107 8.66748C1.68764 8.33658 1.66057 7.99317 1.66057 7.6467C1.66057 7.47843 1.66738 7.30949 1.68088 7.14275C1.68332 7.09535 1.68736 7.04341 1.69287 6.99168L1.69636 6.96009C1.75821 6.30833 1.91653 5.6805 2.16683 5.09408C2.49958 4.31641 2.9712 3.62662 3.56874 3.04368C3.71111 2.90405 3.8638 2.76854 4.02368 2.64003C4.06518 2.60485 4.11147 2.56802 4.15842 2.5321C4.21369 2.48863 4.27215 2.44518 4.33324 2.40248C4.38623 2.36055 4.44951 2.31774 4.50521 2.28083C4.92816 1.9909 5.38459 1.75377 5.86223 1.57602C5.93492 1.54836 6.01008 1.52158 6.08514 1.49597C6.28517 1.42833 6.49039 1.37051 6.6953 1.32388L6.71703 1.31886C6.76262 1.3084 6.80743 1.29817 6.85504 1.28966C6.95976 1.26776 7.06443 1.24946 7.16693 1.2351C7.93529 1.11617 8.74218 1.13947 9.50226 1.30297C9.53579 1.30884 9.57518 1.31735 9.61711 1.32781C9.66357 1.33716 9.71686 1.35078 9.77029 1.36483C9.81821 1.37616 9.87142 1.39109 9.92446 1.40632C9.97337 1.41916 10.0261 1.43453 10.0815 1.45338C10.1267 1.46634 10.1794 1.48302 10.2328 1.50316C10.2945 1.52408 10.3612 1.54803 10.4258 1.5718L10.4557 1.58335C10.4884 1.59578 10.5205 1.60808 10.5538 1.62257C11.2939 1.92581 11.9557 2.3471 12.5206 2.8748C13.0882 3.40491 13.5374 4.0228 13.8556 4.71128C14.174 5.40314 14.3354 6.14587 14.3354 6.91862C14.3354 7.45189 14.2545 7.96446 14.0949 8.44196C13.933 8.92742 13.6899 9.32704 13.3723 9.62951C13.0452 9.93972 12.6315 10.097 12.1425 10.097C11.8457 10.097 11.5909 10.0046 11.3849 9.82207C11.1747 9.63854 11.068 9.362 11.068 9.00017V4.70829C11.068 4.28905 10.7879 3.93081 10.387 3.83704C10.2152 3.79673 10.0345 3.75916 9.8496 3.72541C9.40341 3.64525 8.9544 3.60461 8.51507 3.60461C7.78869 3.60461 7.09121 3.74108 6.442 4.01032C5.80353 4.27555 5.27498 4.73192 4.87094 5.36669C4.46674 6.00158 4.2618 6.88503 4.2618 7.99229C4.2618 8.76071 4.40763 9.41683 4.69537 9.94249C4.98187 10.4662 5.35961 10.8662 5.81804 11.1313C6.67658 11.6271 7.6615 11.6575 8.59133 11.2168C9.02946 11.0085 9.42707 10.6904 9.77315 10.2717L9.89491 10.1245L9.96332 10.3029C10.1036 10.6693 10.3724 10.958 10.7849 11.1857C11.1997 11.4146 11.6564 11.5306 12.1424 11.5306C12.6529 11.5306 13.16 11.3921 13.6492 11.119L13.7083 11.0869C14.2175 10.7932 14.6477 10.304 14.9871 9.63294C15.3274 8.9572 15.5 8.04391 15.5 6.91857C15.5 5.82164 15.2748 4.83343 14.8306 3.98114ZM9.47729 5.14842V7.54517C9.47729 8.3772 9.26708 9.01699 8.85247 9.44688C8.43634 9.87819 7.9913 10.0969 7.52966 10.0969C7.113 10.0969 6.73635 9.93146 6.41009 9.60525C6.08382 9.27882 5.91837 8.77388 5.91837 8.10445C5.91837 7.26893 6.03964 6.62216 6.27878 6.18223C6.52304 5.73533 6.83937 5.42874 7.21912 5.27103C7.58946 5.11658 7.97264 5.03826 8.35799 5.03826C8.5345 5.03826 8.71474 5.04589 8.89369 5.06093C9.07015 5.07597 9.23645 5.09927 9.38801 5.13019L9.47729 5.14842Z" fill="white"/>
</svg>
