<svg width="14" height="18" viewBox="0 0 14 18" fill="none" xmlns="http://www.w3.org/2000/svg">
<path d="M13.8605 15.1839C13.1896 14.284 11.8702 13.1693 11.1147 12.563C10.8248 12.3302 10.3155 12.3871 9.93851 12.6924C9.71137 12.8763 9.41431 13.084 9.05485 13.3115C7.78081 14.1177 7.17483 12.9509 7.17483 12.9509L5.28707 10.0979L3.51644 7.17005C3.51644 7.17005 2.72127 6.12291 3.99532 5.31663C4.35474 5.08915 4.66962 4.90961 4.93306 4.78305C5.37028 4.57303 5.63983 4.13712 5.55348 3.77547C5.329 2.83316 4.88635 1.16358 4.36027 0.171999C4.27823 0.0178082 4.07208 -0.0408505 3.85344 0.029472L3.16134 0.252473C2.93594 0.325077 2.71902 0.438545 2.52907 0.587317C1.98371 1.01478 0.966658 1.9904 0.929929 3.34427C0.915414 3.86704 0.903018 4.53752 0.996695 5.34965C1.09616 6.22141 1.31848 7.25557 1.79049 8.44464C2.28426 9.55257 2.79393 10.511 3.308 11.3435L3.31385 11.3528C3.84618 12.1737 4.49419 13.0446 5.28413 13.9651C6.15669 14.9007 6.99611 15.5443 7.74142 16.0073C8.43526 16.4397 9.04653 16.7155 9.52521 16.9261C10.7645 17.4725 12.0815 16.9709 12.7013 16.661C12.9171 16.5531 13.1125 16.4056 13.2746 16.2329L13.7724 15.703C13.9295 15.5355 13.9648 15.3241 13.8605 15.1839Z" fill="black"/>
</svg>
