<?xml version="1.0" encoding="UTF-8"?>
<svg id="Ebene_2" data-name="Ebene 2" xmlns="http://www.w3.org/2000/svg" viewBox="0 0 20 20">
  <defs>
    <style>
      .cls-1, .cls-2 {
        stroke-width: 0px;
      }

      .cls-2 {
        fill: #fff;
      }
    </style>
  </defs>
  <g id="Ebene_1-2" data-name="Ebene 1">
    <rect class="cls-1" width="20" height="20" rx="4" ry="4"/>
    <g id="Layer_2" data-name="Layer 2">
      <g id="Outlined_Mnemonics_Logos" data-name="Outlined Mnemonics Logos">
        <g id="Ps">
          <path class="cls-2" d="M3.95,14.24V5.61c0-.06.03-.09.08-.09.14,0,.28,0,.47,0,.2,0,.41,0,.64-.01.23,0,.47,0,.73-.01.26,0,.51,0,.76,0,.68,0,1.26.09,1.73.26.42.14.81.38,1.13.69.27.27.48.59.61.95.13.35.19.72.19,1.09,0,.72-.17,1.31-.5,1.78-.34.47-.81.83-1.35,1.02-.57.21-1.2.28-1.89.28-.2,0-.34,0-.42,0-.08,0-.2,0-.36,0v2.69c0,.06-.03.11-.09.12-.01,0-.02,0-.03,0h-1.61c-.06,0-.09-.04-.09-.11ZM5.77,7.13v2.82c.12,0,.22.01.32.01h.45c.33,0,.65-.05.97-.15.27-.08.51-.23.69-.45.18-.21.26-.5.26-.86,0-.26-.06-.52-.2-.74-.14-.22-.35-.38-.59-.48-.31-.12-.65-.18-.99-.17-.22,0-.41,0-.57,0-.17,0-.28.01-.34.02h0Z"/>
          <path class="cls-2" d="M15.52,9.44c-.25-.13-.52-.23-.8-.28-.31-.07-.62-.11-.94-.11-.17,0-.34.02-.51.06-.1.02-.2.08-.26.17-.04.07-.07.15-.07.23,0,.08.03.15.08.22.08.09.18.17.28.22.19.1.39.2.59.28.45.15.89.36,1.29.61.27.17.5.41.66.7.13.27.2.56.2.86,0,.4-.11.78-.32,1.11-.23.33-.56.59-.94.75-.41.18-.92.27-1.52.27-.38,0-.77-.03-1.14-.11-.3-.05-.58-.15-.86-.27-.06-.03-.1-.09-.09-.16v-1.46s0-.06.03-.07c.02-.01.05-.01.07,0,.32.19.67.33,1.04.41.32.08.65.12.99.13.32,0,.55-.04.7-.12.14-.06.22-.2.22-.35,0-.12-.07-.23-.2-.34-.14-.11-.41-.24-.82-.39-.42-.15-.83-.35-1.2-.61-.26-.18-.48-.43-.63-.71-.13-.27-.2-.56-.2-.86,0-.36.1-.71.28-1.01.21-.34.52-.6.88-.77.4-.2.89-.3,1.49-.3.35,0,.7.02,1.04.07.25.03.49.1.72.2.04.01.07.04.08.07,0,.03.01.07.01.1v1.36s-.01.06-.04.08c-.04.02-.08.02-.12,0Z"/>
        </g>
      </g>
    </g>
  </g>
</svg>