<?xml version="1.0" encoding="UTF-8"?>
<svg id="Ebene_2" data-name="Ebene 2" xmlns="http://www.w3.org/2000/svg" viewBox="0 0 20 20">
  <defs>
    <style>
      .cls-1, .cls-2, .cls-3 {
        stroke-width: 0px;
      }

      .cls-2 {
        fill: #ccc;
      }

      .cls-3 {
        fill: #fff;
      }
    </style>
  </defs>
  <g id="Ebene_1-2" data-name="Ebene 1">
    <rect class="cls-1" width="20" height="20" rx="4" ry="4"/>
    <g>
      <path class="cls-3" d="M13.97,6.34c0-.06-.06-.09-.1-.1-.04,0-.97-.07-.97-.07,0,0-.64-.64-.71-.71-.07-.07-.21-.05-.26-.03,0,0-.14.04-.36.11-.21-.62-.59-1.18-1.26-1.18-.02,0-.04,0-.06,0-.19-.25-.42-.36-.63-.36-1.55,0-2.29,1.93-2.52,2.92-.6.19-1.03.32-1.08.34-.34.11-.35.12-.39.43-.03.24-.91,7.03-.91,7.03l6.84,1.28,3.71-.8s-1.3-8.8-1.31-8.86ZM11.19,5.66c-.17.05-.37.11-.58.18,0-.04,0-.08,0-.12,0-.38-.05-.69-.14-.94.34.04.57.43.72.88ZM10.05,4.85c.1.24.16.58.16,1.04,0,.02,0,.05,0,.07-.38.12-.79.24-1.2.37.23-.89.66-1.32,1.04-1.48ZM9.59,4.42c.07,0,.13.02.2.07-.5.23-1.03.82-1.25,2-.33.1-.65.2-.95.29.26-.9.89-2.35,2-2.35Z"/>
      <path class="cls-2" d="M13.86,6.24s-.97-.07-.97-.07c0,0-.64-.64-.71-.71-.03-.03-.06-.04-.1-.05l-.52,10.58,3.71-.8s-1.3-8.8-1.31-8.86c0-.06-.06-.09-.1-.1Z"/>
      <path class="cls-1" d="M10.31,8.29l-.46,1.36s-.4-.21-.89-.21c-.72,0-.76.45-.76.57,0,.62,1.62.86,1.62,2.31,0,1.14-.73,1.88-1.71,1.88-1.17,0-1.78-.73-1.78-.73l.31-1.04s.62.53,1.14.53c.34,0,.48-.27.48-.46,0-.81-1.33-.85-1.33-2.18,0-1.12.8-2.21,2.43-2.21.63,0,.93.18.93.18Z"/>
    </g>
  </g>
</svg>