<?xml version="1.0" encoding="UTF-8"?>
<svg id="Ebene_2" data-name="Ebene 2" xmlns="http://www.w3.org/2000/svg" viewBox="0 0 20 20">
  <defs>
    <style>
      .cls-1, .cls-2 {
        stroke-width: 0px;
      }

      .cls-2 {
        fill: #fff;
      }
    </style>
  </defs>
  <g id="Ebene_1-2" data-name="Ebene 1">
    <rect class="cls-1" x="0" width="20" height="20" rx="4" ry="4"/>
    <path class="cls-2" d="M4.49,10c0,2.18,1.27,4.07,3.11,4.96l-2.63-7.2c-.31.69-.48,1.44-.48,2.24ZM13.72,9.72c0-.68-.24-1.15-.45-1.52-.28-.45-.54-.84-.54-1.29,0-.51.38-.98.93-.98.02,0,.05,0,.07,0-.98-.9-2.29-1.45-3.72-1.45-1.93,0-3.62.99-4.6,2.48.13,0,.25,0,.35,0,.58,0,1.47-.07,1.47-.07.3-.02.33.42.04.45,0,0-.3.04-.63.05l2.01,5.97,1.21-3.62-.86-2.35c-.3-.02-.58-.05-.58-.05-.3-.02-.26-.47.03-.45,0,0,.91.07,1.45.07.58,0,1.47-.07,1.47-.07.3-.02.33.42.04.45,0,0-.3.04-.63.05l1.99,5.92.55-1.84c.24-.76.42-1.31.42-1.78ZM10.1,10.48l-1.65,4.8c.49.15,1.02.22,1.56.22.64,0,1.26-.11,1.83-.31-.01-.02-.03-.05-.04-.08l-1.69-4.64ZM14.83,7.36c.02.18.04.36.04.57,0,.56-.1,1.19-.42,1.97l-1.68,4.87c1.64-.96,2.74-2.73,2.74-4.76,0-.96-.24-1.86-.67-2.64ZM10,3.58c-3.54,0-6.42,2.88-6.42,6.42s2.88,6.42,6.42,6.42,6.42-2.88,6.42-6.42c0-3.54-2.88-6.42-6.42-6.42ZM10,16.13c-3.38,0-6.13-2.75-6.13-6.13s2.75-6.13,6.13-6.13,6.13,2.75,6.13,6.13-2.75,6.13-6.13,6.13Z"/>
  </g>
</svg>