<?xml version="1.0" encoding="UTF-8"?>
<svg id="Ebene_2" data-name="Ebene 2" xmlns="http://www.w3.org/2000/svg" viewBox="0 0 22.87 22.88">
  <defs>
    <style>
      .cls-1 {
        fill: #fff;
        stroke-width: 0px;
      }
    </style>
  </defs>
  <g id="Capa_1" data-name="Capa 1">
    <path class="cls-1" d="M.32,1.91C-.11,1.48-.11.77.32.32.77-.11,1.46-.11,1.91.32l9.52,9.54L20.97.32c.43-.43,1.14-.43,1.57,0,.44.44.44,1.16,0,1.59l-9.52,9.52,9.52,9.54c.44.43.44,1.14,0,1.59s-1.14.43-1.57,0l-9.54-9.54L1.91,22.56c-.44.43-1.14.43-1.59,0-.43-.44-.43-1.16,0-1.59l9.52-9.54L.32,1.91Z"/>
  </g>
</svg>